Coordinates
version=1
nRows=49
nColumns=12
inDegrees=yes

Units are S.I. units (second, meters, Newtons, ...)
Angles are in degrees

endheader
time	SC_y	SC_z	SC_x	AC_y	AC_z	AC_x	GH_y	GH_z	GH_yy	EL_x	PS_y
       0.0              -58.32          2.614          15.01           63.5         0.3966           13.1          161.9          68.27          168.6          20.78          8.411
   0.02794              -58.31          2.617          15.01           63.5         0.3944          13.09          161.9          68.26          168.6          20.78          8.427
   0.05589              -58.31          2.619          15.02           63.5          0.392          13.09          161.9          68.25          168.6          20.78          8.443
   0.08383               -58.3          2.622          15.02           63.5         0.3894          13.08          161.9          68.25          168.6          20.78          8.461
    0.1118              -58.29          2.625          15.02           63.5         0.3867          13.08          161.9          68.24          168.6          20.78           8.48
    0.1397              -58.28          2.627          15.02           63.5         0.3838          13.07          161.8          68.23          168.6          20.78          8.501
    0.1677              -58.27          2.631          15.03           63.5         0.3807          13.06          161.8          68.22          168.6          20.78          8.522
    0.1956              -58.26          2.634          15.03           63.5         0.3774          13.06          161.8          68.21          168.6          20.77          8.545
    0.2235              -58.25          2.638          15.03           63.5         0.3738          13.05          161.8           68.2          168.6          20.77           8.57
    0.2515              -58.24          2.641          15.03           63.5           0.37          13.04          161.8          68.19          168.5          20.77          8.597
    0.2794              -58.23          2.646          15.04           63.5         0.3659          13.03          161.8          68.18          168.5          20.77          8.625
    0.3074              -58.22           2.65          15.04           63.5         0.3615          13.02          161.8          68.17          168.5          20.77          8.656
    0.3353               -58.2          2.655          15.05           63.5         0.3568          13.01          161.8          68.16          168.5          20.77          8.689
    0.3633              -58.19           2.66          15.05           63.5         0.3516           13.0          161.8          68.15          168.5          20.77          8.725
    0.3912              -58.17          2.666          15.06           63.5         0.3461          12.99          161.7          68.13          168.5          20.77          8.763
    0.4191              -58.15          2.672          15.06           63.5         0.3401          12.98          161.7          68.11          168.5          20.76          8.805
    0.4471              -58.14          2.678          15.07          63.51         0.3335          12.97          161.7           68.1          168.4          20.76          8.851
     0.475              -58.11          2.686          15.07          63.51         0.3264          12.95          161.7          68.08          168.4          20.76          8.901
     0.503              -58.09          2.694          15.08          63.51         0.3186          12.94          161.7          68.06          168.4          20.76          8.955
    0.5309              -58.07          2.702          15.09          63.51         0.3101          12.92          161.6          68.03          168.4          20.75          9.014
    0.5589              -58.04          2.712          15.09          63.51         0.3008           12.9          161.6          68.01          168.3          20.75          9.079
    0.5868              -58.01          2.722           15.1          63.51         0.2905          12.88          161.6          67.98          168.3          20.75          9.151
    0.6147              -57.98          2.734          15.11          63.51         0.2791          12.86          161.5          67.95          168.3          20.75          9.231
    0.6427              -57.94          2.746          15.12          63.51         0.2665          12.83          161.5          67.92          168.3          20.74          9.318
    0.6706               -57.9          2.761          15.13          63.52         0.2525           12.8          161.5          67.88          168.2          20.74          9.416
    0.6986              -57.85          2.776          15.15          63.52         0.2369          12.77          161.4          67.84          168.2          20.73          9.525
    0.7265               -57.8          2.794          15.16          63.52         0.2194          12.73          161.4          67.79          168.1          20.73          9.647
    0.7545              -57.74          2.814          15.18          63.52         0.1997          12.69          161.3          67.74          168.1          20.72          9.784
    0.7824              -57.68          2.837           15.2          63.52         0.1775          12.65          161.3          67.68          168.0          20.72          9.939
    0.8103               -57.6          2.862          15.22          63.53         0.1522           12.6          161.2          67.61          167.9          20.71          10.12
    0.8383              -57.52          2.891          15.24          63.53         0.1234          12.54          161.1          67.54          167.8           20.7          10.32
    0.8662              -57.42          2.925          15.27          63.53        0.09027          12.47          161.0          67.45          167.8          20.69          10.55
    0.8942              -57.31          2.964           15.3          63.54        0.05207          12.39          160.9          67.35          167.6          20.68          10.81
    0.9221              -57.18          3.009          15.34          63.54       0.007685           12.3          160.8          67.23          167.5          20.67          11.12
    0.9501              -57.03          3.061          15.39          63.55       -0.04425           12.2          160.6          67.09          167.4          20.65          11.49
     0.978              -56.85          3.123          15.44          63.56        -0.1055          12.07          160.4          66.93          167.2          20.63          11.91
     1.006              -56.64          3.197           15.5          63.57        -0.1782          11.92          160.2          66.73          167.0          20.61          12.42
     1.034              -56.38          3.285          15.57          63.58        -0.2654          11.75          160.0           66.5          166.8          20.59          13.03
     1.062              -56.07          3.392          15.66          63.59         -0.371          11.53          159.7          66.22          166.5          20.55          13.76
      1.09              -55.69          3.523          15.77           63.6        -0.4999          11.27          159.3          65.87          166.1          20.52          14.66
     1.118              -55.23          3.684          15.91          63.62        -0.6589          10.94          158.9          65.45          165.7          20.47          15.77
     1.146              -54.65          3.885          16.08          63.64        -0.8573          10.54          158.3          64.92          165.1          20.41          17.16
     1.174              -53.91          4.138          16.29          63.67         -1.107          10.03          157.6          64.25          164.4          20.34           18.9
     1.202              -52.98           4.46          16.56          63.71         -1.425          9.383          156.7          63.41          163.5          20.24          21.11
     1.229              -51.79          4.872           16.9          63.76         -1.831          8.554          155.5          62.32          162.4          20.12          23.95
     1.257              -50.26          5.401          17.35          63.82         -2.353           7.49          154.0          60.93          160.9          19.97          27.59
     1.285              -48.31          6.077          17.91          63.89          -3.02          6.132          152.1          59.15          159.0          19.77          32.24
     1.313              -45.85          6.926          18.63          63.99         -3.858          4.423          149.7          56.92          156.7          19.53          38.08
     1.341              -42.86          7.961          19.49          64.11         -4.879          2.341          146.8          54.19          153.8          19.22           45.2
